<svg xmlns="http://www.w3.org/2000/svg" viewBox="0 0 410 404" fill="none">
  <g clip-path="url(#clip0_17_66)">
    <path d="M399.641 59.5255L215.643 388.545C211.844 395.226 202.198 395.292 198.305 388.669L10.3601 59.5563C6.08844 52.1833 12.881 43.2665 21.1319 44.9802L205 83L389.122 44.9639C397.411 43.2739 404.197 52.243 399.89 59.6081L399.641 59.5255Z" fill="url(#paint0_linear_17_66)"/>
    <path d="M292.965 1.5744L156.801 28.2558C153.872 28.8252 151.946 31.4667 152.376 34.4229L170.267 156.937C170.697 159.893 173.73 161.803 176.576 160.934L226.159 146.032C229.586 145.011 233.038 147.62 232.912 151.187L231.045 205.432C230.919 209 234.401 211.565 237.784 210.378L266.5 200.5" stroke="url(#paint1_linear_17_66)" stroke-width="25" stroke-linecap="round"/>
  </g>
  <defs>
    <linearGradient id="paint0_linear_17_66" x1="6.00017" y1="32.9999" x2="235" y2="344" gradientUnits="userSpaceOnUse">
      <stop stop-color="#c1121f"/>
      <stop offset="1" stop-color="#c0c0c0"/>
    </linearGradient>
    <linearGradient id="paint1_linear_17_66" x1="178" y1="11" x2="284" y2="200.5" gradientUnits="userSpaceOnUse">
      <stop stop-color="#fff"/>
      <stop offset="1" stop-color="#c1121f"/>
    </linearGradient>
    <clipPath id="clip0_17_66">
      <rect width="410" height="404" fill="white"/>
    </clipPath>
  </defs>
</svg>
